<svg xmlns="http://www.w3.org/2000/svg" xmlns:xlink="http://www.w3.org/1999/xlink" width="108" zoomAndPan="magnify" viewBox="0 0 375 374.999991" height="112" preserveAspectRatio="xMidYMid meet" version="1.0"><defs><g/><clipPath id="20f9cb8ad5"><path d="M 59.253906 59.253906 L 315.746094 59.253906 L 315.746094 315.746094 L 59.253906 315.746094 Z M 59.253906 59.253906 " clip-rule="nonzero"/></clipPath><clipPath id="6597a5f90e"><path d="M 187.5 59.253906 C 116.671875 59.253906 59.253906 116.671875 59.253906 187.5 C 59.253906 258.328125 116.671875 315.746094 187.5 315.746094 C 258.328125 315.746094 315.746094 258.328125 315.746094 187.5 C 315.746094 116.671875 258.328125 59.253906 187.5 59.253906 " clip-rule="nonzero"/></clipPath><clipPath id="cb2d252ccd"><path d="M 64.867188 64.867188 L 310.117188 64.867188 L 310.117188 310.117188 L 64.867188 310.117188 Z M 64.867188 64.867188 " clip-rule="nonzero"/></clipPath><clipPath id="8e5cff37a7"><path d="M 71.515625 227.894531 L 303.265625 227.894531 L 303.265625 303.265625 L 71.515625 303.265625 Z M 71.515625 227.894531 " clip-rule="nonzero"/></clipPath><clipPath id="8ef24d0065"><path d="M 142.746094 152 L 240.996094 152 L 240.996094 214.996094 L 142.746094 214.996094 Z M 142.746094 152 " clip-rule="nonzero"/></clipPath><clipPath id="ad3a03c153"><path d="M 184 107.746094 L 201 107.746094 L 201 144 L 184 144 Z M 184 107.746094 " clip-rule="nonzero"/></clipPath><clipPath id="ed92b3df4d"><path d="M 90.046875 134.808594 L 97.679688 134.808594 L 97.679688 142.441406 L 90.046875 142.441406 Z M 90.046875 134.808594 " clip-rule="nonzero"/></clipPath><clipPath id="8c637fcc6f"><path d="M 93.863281 134.808594 C 91.753906 134.808594 90.046875 136.519531 90.046875 138.625 C 90.046875 140.734375 91.753906 142.441406 93.863281 142.441406 C 95.96875 142.441406 97.679688 140.734375 97.679688 138.625 C 97.679688 136.519531 95.96875 134.808594 93.863281 134.808594 " clip-rule="nonzero"/></clipPath><clipPath id="136f3e4504"><path d="M 277.320312 134.808594 L 284.953125 134.808594 L 284.953125 142.441406 L 277.320312 142.441406 Z M 277.320312 134.808594 " clip-rule="nonzero"/></clipPath><clipPath id="9e19aa7b54"><path d="M 281.136719 134.808594 C 279.03125 134.808594 277.320312 136.519531 277.320312 138.625 C 277.320312 140.734375 279.03125 142.441406 281.136719 142.441406 C 283.246094 142.441406 284.953125 140.734375 284.953125 138.625 C 284.953125 136.519531 283.246094 134.808594 281.136719 134.808594 " clip-rule="nonzero"/></clipPath></defs><g clip-path="url(#20f9cb8ad5)"><g clip-path="url(#6597a5f90e)"><path fill="#332219" d="M 59.253906 59.253906 L 315.746094 59.253906 L 315.746094 315.746094 L 59.253906 315.746094 Z M 59.253906 59.253906 " fill-opacity="1" fill-rule="nonzero"/></g></g><g clip-path="url(#cb2d252ccd)"><path fill="#ffffff" d="M 302.53125 220.1875 C 299.421875 230.773438 294.675781 240.816406 288.785156 250.066406 C 283.921875 257.59375 278.390625 264.667969 272.175781 271.101562 C 271.371094 271.980469 270.472656 272.769531 269.621094 273.597656 C 268.753906 274.410156 267.910156 275.253906 267.023438 276.046875 L 264.332031 278.390625 L 262.984375 279.5625 L 261.585938 280.675781 L 258.796875 282.902344 C 257.851562 283.625 256.875 284.308594 255.917969 285.015625 C 254.027344 286.464844 252.015625 287.738281 250.042969 289.078125 C 249.757812 289.269531 249.460938 289.46875 249.148438 289.679688 C 248.828125 289.871094 248.492188 290.074219 248.144531 290.28125 C 247.449219 290.699219 246.703125 291.144531 245.90625 291.621094 C 244.332031 292.609375 242.46875 293.542969 240.457031 294.613281 C 239.949219 294.871094 239.445312 295.15625 238.910156 295.414062 C 238.371094 295.664062 237.824219 295.917969 237.265625 296.175781 C 236.144531 296.691406 234.988281 297.226562 233.792969 297.78125 C 231.34375 298.738281 228.789062 299.886719 226 300.78125 C 215 304.769531 201.269531 307.234375 187.492188 307.292969 C 173.714844 307.234375 159.984375 304.769531 148.984375 300.78125 C 146.199219 299.886719 143.644531 298.738281 141.191406 297.78125 C 139.996094 297.226562 138.839844 296.691406 137.722656 296.175781 C 137.164062 295.917969 136.613281 295.664062 136.078125 295.414062 C 135.542969 295.15625 135.035156 294.871094 134.53125 294.613281 C 132.519531 293.542969 130.65625 292.609375 129.082031 291.621094 C 128.285156 291.144531 127.535156 290.699219 126.839844 290.28125 C 126.492188 290.074219 126.160156 289.875 125.835938 289.679688 C 125.527344 289.472656 125.226562 289.269531 124.945312 289.078125 C 117.457031 284.175781 110.425781 278.601562 104.035156 272.34375 C 97.292969 265.609375 91.398438 258.066406 86.203125 250.066406 C 80.3125 240.816406 75.5625 230.773438 72.453125 220.1875 C 69.21875 209.636719 67.71875 198.566406 67.625 187.492188 C 67.71875 176.417969 69.21875 165.347656 72.453125 154.796875 C 75.5625 144.210938 80.3125 134.167969 86.203125 124.917969 C 91.066406 117.390625 96.59375 110.316406 102.808594 103.882812 C 103.613281 103.003906 104.511719 102.21875 105.363281 101.386719 C 106.230469 100.574219 107.074219 99.730469 107.960938 98.9375 L 110.65625 96.59375 L 112 95.421875 L 113.398438 94.3125 L 116.1875 92.082031 C 117.132812 91.359375 118.109375 90.675781 119.066406 89.96875 C 120.957031 88.519531 122.972656 87.246094 124.941406 85.90625 C 125.226562 85.714844 125.523438 85.515625 125.835938 85.304688 C 126.15625 85.113281 126.492188 84.914062 126.839844 84.703125 C 127.535156 84.285156 128.28125 83.839844 129.078125 83.363281 C 130.65625 82.375 132.515625 81.441406 134.527344 80.375 C 135.035156 80.113281 135.542969 79.828125 136.078125 79.574219 C 136.613281 79.320312 137.164062 79.066406 137.722656 78.808594 C 138.839844 78.292969 139.996094 77.757812 141.191406 77.203125 C 143.644531 76.246094 146.199219 75.097656 148.984375 74.203125 C 159.984375 70.214844 173.714844 67.75 187.492188 67.691406 C 201.269531 67.75 215 70.214844 226 74.203125 C 228.789062 75.097656 231.339844 76.246094 233.792969 77.203125 C 234.988281 77.757812 236.144531 78.292969 237.261719 78.808594 C 237.820312 79.066406 238.371094 79.320312 238.910156 79.570312 C 239.441406 79.828125 239.949219 80.113281 240.457031 80.375 C 242.464844 81.441406 244.332031 82.375 245.902344 83.363281 C 246.699219 83.839844 247.449219 84.285156 248.144531 84.703125 C 248.492188 84.910156 248.828125 85.113281 249.148438 85.304688 C 249.457031 85.515625 249.757812 85.714844 250.042969 85.90625 C 257.527344 90.808594 264.558594 96.382812 270.949219 102.640625 C 277.691406 109.375 283.585938 116.917969 288.78125 124.917969 C 294.675781 134.167969 299.421875 144.210938 302.53125 154.796875 C 305.769531 165.347656 307.265625 176.417969 307.359375 187.492188 C 307.265625 198.566406 305.769531 209.636719 302.53125 220.1875 Z M 310.117188 187.410156 L 310.113281 187.402344 C 310.015625 176.09375 308.492188 164.78125 305.199219 153.992188 C 302.03125 143.171875 297.179688 132.902344 291.128906 123.46875 L 288.222656 119.097656 C 288.222656 119.097656 287.382812 117.921875 286.121094 116.160156 C 284.90625 114.359375 283.050781 112.140625 281.277344 109.863281 C 279.363281 107.699219 277.53125 105.460938 275.988281 103.9375 C 274.492188 102.375 273.492188 101.332031 273.492188 101.332031 C 273.492188 101.332031 273.242188 101.074219 272.785156 100.636719 C 272.332031 100.199219 271.683594 99.570312 270.90625 98.820312 C 269.386719 97.273438 267.179688 95.40625 265.019531 93.496094 C 263.90625 92.574219 262.765625 91.691406 261.710938 90.839844 C 261.179688 90.417969 260.667969 90.011719 260.183594 89.625 C 259.679688 89.261719 259.207031 88.921875 258.765625 88.605469 C 257.011719 87.335938 255.839844 86.492188 255.839844 86.492188 C 255.839844 86.492188 255.585938 86.285156 255.171875 86.015625 C 254.761719 85.746094 254.21875 85.378906 253.675781 85.015625 C 252.585938 84.285156 251.496094 83.554688 251.496094 83.554688 C 251.203125 83.359375 250.898438 83.152344 250.582031 82.941406 C 250.253906 82.742188 249.914062 82.535156 249.558594 82.320312 C 248.847656 81.890625 248.082031 81.433594 247.269531 80.945312 C 245.660156 79.929688 243.753906 78.972656 241.695312 77.875 C 241.179688 77.609375 240.660156 77.316406 240.113281 77.054688 C 239.5625 76.796875 239 76.535156 238.429688 76.269531 C 237.289062 75.738281 236.101562 75.191406 234.878906 74.625 C 232.371094 73.636719 229.757812 72.464844 226.90625 71.546875 C 215.648438 67.457031 201.589844 64.921875 187.492188 64.867188 C 173.394531 64.921875 159.335938 67.457031 148.078125 71.546875 C 145.226562 72.464844 142.613281 73.640625 140.105469 74.625 C 138.882812 75.191406 137.699219 75.738281 136.554688 76.269531 C 135.980469 76.535156 135.421875 76.796875 134.871094 77.054688 C 134.324219 77.316406 133.804688 77.609375 133.289062 77.875 C 131.230469 78.972656 129.324219 79.929688 127.714844 80.945312 C 126.902344 81.433594 126.136719 81.894531 125.425781 82.320312 C 125.070312 82.535156 124.730469 82.742188 124.402344 82.941406 C 124.082031 83.15625 123.78125 83.359375 123.488281 83.554688 C 123.488281 83.554688 122.398438 84.285156 121.308594 85.015625 C 120.765625 85.378906 120.222656 85.746094 119.8125 86.019531 C 119.402344 86.285156 119.144531 86.492188 119.144531 86.492188 C 119.144531 86.492188 117.976562 87.335938 116.21875 88.605469 C 115.78125 88.921875 115.304688 89.261719 114.800781 89.625 C 114.316406 90.011719 113.804688 90.417969 113.273438 90.839844 C 112.21875 91.691406 111.078125 92.574219 109.96875 93.496094 C 107.804688 95.40625 105.601562 97.273438 104.082031 98.820312 C 103.300781 99.570312 102.652344 100.199219 102.199219 100.636719 C 101.742188 101.074219 101.492188 101.332031 101.492188 101.332031 C 101.492188 101.332031 100.492188 102.375 98.996094 103.9375 C 97.453125 105.460938 95.621094 107.699219 93.710938 109.863281 C 91.933594 112.140625 90.078125 114.359375 88.863281 116.160156 C 87.601562 117.921875 86.761719 119.097656 86.761719 119.097656 L 83.855469 123.46875 C 77.804688 132.902344 72.953125 143.175781 69.785156 153.992188 C 66.492188 164.78125 64.972656 176.09375 64.871094 187.402344 L 64.867188 187.410156 L 64.867188 187.574219 L 64.871094 187.582031 C 64.972656 198.890625 66.492188 210.203125 69.785156 220.992188 C 72.953125 231.8125 77.804688 242.082031 83.855469 251.515625 L 86.761719 255.886719 C 86.761719 255.886719 87.605469 257.0625 88.863281 258.824219 C 90.078125 260.625 91.933594 262.84375 93.710938 265.121094 C 95.621094 267.289062 97.453125 269.523438 98.996094 271.046875 C 100.492188 272.609375 101.492188 273.652344 101.492188 273.652344 C 101.492188 273.652344 101.742188 273.910156 102.199219 274.347656 C 102.652344 274.785156 103.300781 275.414062 104.082031 276.164062 C 105.601562 277.714844 107.804688 279.578125 109.96875 281.488281 C 111.078125 282.410156 112.21875 283.296875 113.273438 284.144531 C 113.804688 284.566406 114.316406 284.972656 114.800781 285.359375 C 115.304688 285.722656 115.78125 286.066406 116.21875 286.382812 C 117.976562 287.648438 119.144531 288.492188 119.144531 288.492188 C 119.144531 288.492188 119.402344 288.699219 119.8125 288.96875 C 120.222656 289.242188 120.765625 289.605469 121.308594 289.96875 C 122.398438 290.699219 123.488281 291.429688 123.488281 291.429688 C 123.78125 291.625 124.085938 291.832031 124.402344 292.046875 C 124.730469 292.246094 125.070312 292.449219 125.425781 292.664062 C 126.136719 293.09375 126.902344 293.550781 127.71875 294.042969 C 129.328125 295.054688 131.230469 296.011719 133.289062 297.109375 C 133.804688 297.378906 134.324219 297.667969 134.871094 297.933594 C 135.421875 298.1875 135.984375 298.449219 136.554688 298.714844 C 137.699219 299.246094 138.882812 299.792969 140.105469 300.363281 C 142.613281 301.347656 145.226562 302.519531 148.078125 303.441406 C 159.335938 307.527344 173.394531 310.0625 187.492188 310.117188 C 201.589844 310.0625 215.648438 307.527344 226.90625 303.4375 C 229.757812 302.519531 232.375 301.34375 234.878906 300.359375 C 236.101562 299.792969 237.289062 299.246094 238.429688 298.714844 C 239.003906 298.449219 239.5625 298.1875 240.113281 297.933594 C 240.660156 297.667969 241.179688 297.378906 241.699219 297.109375 C 243.753906 296.011719 245.660156 295.054688 247.269531 294.042969 C 248.082031 293.550781 248.847656 293.09375 249.558594 292.664062 C 249.914062 292.449219 250.253906 292.242188 250.582031 292.046875 C 250.902344 291.828125 251.207031 291.625 251.496094 291.429688 C 251.496094 291.429688 252.585938 290.699219 253.675781 289.96875 C 254.21875 289.605469 254.765625 289.242188 255.171875 288.96875 C 255.585938 288.699219 255.839844 288.492188 255.839844 288.492188 C 255.839844 288.492188 257.011719 287.648438 258.765625 286.382812 C 259.207031 286.066406 259.679688 285.722656 260.183594 285.359375 C 260.667969 284.972656 261.179688 284.566406 261.710938 284.144531 C 262.765625 283.296875 263.90625 282.410156 265.019531 281.488281 C 267.179688 279.578125 269.386719 277.714844 270.90625 276.164062 C 271.683594 275.414062 272.332031 274.785156 272.785156 274.347656 C 273.242188 273.910156 273.492188 273.652344 273.492188 273.652344 C 273.492188 273.652344 274.492188 272.609375 275.988281 271.046875 C 277.53125 269.523438 279.363281 267.289062 281.277344 265.121094 C 283.050781 262.84375 284.910156 260.625 286.121094 258.824219 C 287.382812 257.0625 288.222656 255.886719 288.222656 255.886719 L 291.128906 251.515625 C 297.179688 242.082031 302.03125 231.8125 305.199219 220.992188 C 308.492188 210.203125 310.015625 198.890625 310.113281 187.582031 L 310.117188 187.574219 L 310.117188 187.410156 " fill-opacity="1" fill-rule="nonzero"/></g><g clip-path="url(#8e5cff37a7)"><path fill="#fcfffe" d="M 303.265625 187.390625 C 303.265625 189.285156 303.21875 191.179688 303.125 193.074219 C 303.03125 194.96875 302.890625 196.859375 302.707031 198.746094 C 302.519531 200.632812 302.289062 202.515625 302.011719 204.390625 C 301.730469 206.269531 301.40625 208.136719 301.039062 209.996094 C 300.667969 211.855469 300.253906 213.707031 299.792969 215.546875 C 299.332031 217.382812 298.824219 219.210938 298.273438 221.027344 C 297.722656 222.839844 297.128906 224.640625 296.492188 226.425781 C 295.851562 228.210938 295.167969 229.980469 294.445312 231.734375 C 293.71875 233.484375 292.949219 235.21875 292.140625 236.933594 C 291.328125 238.648438 290.476562 240.339844 289.582031 242.011719 C 288.6875 243.683594 287.753906 245.335938 286.777344 246.960938 C 285.804688 248.585938 284.789062 250.191406 283.734375 251.765625 C 282.683594 253.34375 281.589844 254.894531 280.460938 256.417969 C 279.332031 257.941406 278.164062 259.433594 276.960938 260.898438 C 275.757812 262.367188 274.519531 263.800781 273.246094 265.207031 C 271.972656 266.613281 270.667969 267.984375 269.324219 269.324219 C 267.984375 270.667969 266.613281 271.972656 265.207031 273.246094 C 263.800781 274.519531 262.367188 275.757812 260.898438 276.960938 C 259.433594 278.164062 257.9375 279.332031 256.417969 280.460938 C 254.894531 281.589844 253.34375 282.683594 251.765625 283.734375 C 250.191406 284.789062 248.585938 285.804688 246.960938 286.777344 C 245.335938 287.753906 243.683594 288.6875 242.011719 289.582031 C 240.339844 290.476562 238.648438 291.328125 236.933594 292.140625 C 235.21875 292.949219 233.484375 293.71875 231.734375 294.445312 C 229.980469 295.167969 228.210938 295.851562 226.425781 296.492188 C 224.640625 297.128906 222.839844 297.722656 221.027344 298.273438 C 219.210938 298.824219 217.382812 299.332031 215.546875 299.792969 C 213.707031 300.253906 211.855469 300.667969 209.996094 301.039062 C 208.136719 301.40625 206.269531 301.730469 204.390625 302.011719 C 202.515625 302.289062 200.632812 302.519531 198.746094 302.707031 C 196.859375 302.890625 194.96875 303.03125 193.074219 303.125 C 191.179688 303.21875 189.285156 303.265625 187.390625 303.265625 C 185.492188 303.265625 183.597656 303.21875 181.703125 303.125 C 179.808594 303.03125 177.917969 302.890625 176.03125 302.707031 C 174.144531 302.519531 172.261719 302.289062 170.386719 302.011719 C 168.511719 301.730469 166.644531 301.40625 164.785156 301.039062 C 162.921875 300.667969 161.074219 300.253906 159.234375 299.792969 C 157.394531 299.332031 155.566406 298.824219 153.753906 298.273438 C 151.9375 297.722656 150.136719 297.128906 148.351562 296.492188 C 146.566406 295.851562 144.796875 295.167969 143.046875 294.445312 C 141.292969 293.71875 139.5625 292.949219 137.847656 292.140625 C 136.132812 291.328125 134.4375 290.476562 132.765625 289.582031 C 131.09375 288.6875 129.445312 287.753906 127.816406 286.777344 C 126.191406 285.804688 124.589844 284.789062 123.011719 283.734375 C 121.4375 282.683594 119.886719 281.589844 118.363281 280.460938 C 116.839844 279.332031 115.34375 278.164062 113.878906 276.960938 C 112.414062 275.757812 110.976562 274.519531 109.574219 273.246094 C 108.167969 271.972656 106.792969 270.667969 105.453125 269.324219 C 104.113281 267.984375 102.804688 266.613281 101.53125 265.207031 C 100.257812 263.800781 99.019531 262.367188 97.816406 260.898438 C 96.613281 259.433594 95.449219 257.9375 94.316406 256.417969 C 93.1875 254.894531 92.097656 253.34375 91.042969 251.765625 C 89.988281 250.191406 88.976562 248.585938 88 246.960938 C 87.023438 245.335938 86.089844 243.683594 85.195312 242.011719 C 84.304688 240.339844 83.449219 238.648438 82.640625 236.933594 C 81.828125 235.21875 81.0625 233.484375 80.335938 231.734375 C 79.609375 229.980469 78.925781 228.210938 78.289062 226.425781 C 77.648438 224.640625 77.054688 222.839844 76.503906 221.027344 C 75.953125 219.210938 75.449219 217.382812 74.988281 215.546875 C 74.527344 213.707031 74.109375 211.855469 73.742188 209.996094 C 73.371094 208.136719 73.046875 206.269531 72.769531 204.390625 C 72.492188 202.515625 72.257812 200.632812 72.074219 198.746094 C 71.886719 196.859375 71.746094 194.96875 71.652344 193.074219 C 71.5625 191.179688 71.515625 189.285156 71.515625 187.390625 C 71.515625 185.492188 71.5625 183.597656 71.652344 181.703125 C 71.746094 179.808594 71.886719 177.917969 72.074219 176.03125 C 72.257812 174.144531 72.492188 172.261719 72.769531 170.386719 C 73.046875 168.511719 73.371094 166.644531 73.742188 164.785156 C 74.109375 162.921875 74.527344 161.074219 74.988281 159.234375 C 75.449219 157.394531 75.953125 155.566406 76.503906 153.753906 C 77.054688 151.9375 77.648438 150.136719 78.289062 148.351562 C 78.925781 146.566406 79.609375 144.796875 80.335938 143.046875 C 81.0625 141.292969 81.828125 139.5625 82.640625 137.847656 C 83.449219 136.132812 84.304688 134.4375 85.195312 132.765625 C 86.089844 131.09375 87.027344 129.445312 88 127.816406 C 88.976562 126.191406 89.988281 124.589844 91.042969 123.011719 C 92.097656 121.4375 93.1875 119.886719 94.316406 118.363281 C 95.449219 116.839844 96.613281 115.34375 97.816406 113.878906 C 99.019531 112.414062 100.257812 110.976562 101.53125 109.574219 C 102.804688 108.167969 104.113281 106.792969 105.453125 105.453125 C 106.792969 104.113281 108.167969 102.804688 109.574219 101.53125 C 110.976562 100.257812 112.414062 99.019531 113.878906 97.816406 C 115.34375 96.613281 116.839844 95.449219 118.363281 94.316406 C 119.886719 93.1875 121.4375 92.097656 123.011719 91.042969 C 124.589844 89.988281 126.191406 88.976562 127.816406 88 C 129.445312 87.027344 131.09375 86.089844 132.765625 85.195312 C 134.4375 84.304688 136.132812 83.449219 137.847656 82.640625 C 139.5625 81.828125 141.292969 81.0625 143.046875 80.335938 C 144.796875 79.609375 146.566406 78.925781 148.351562 78.289062 C 150.136719 77.648438 151.9375 77.054688 153.753906 76.503906 C 155.566406 75.953125 157.394531 75.449219 159.234375 74.988281 C 161.074219 74.527344 162.921875 74.109375 164.785156 73.742188 C 166.644531 73.371094 168.511719 73.046875 170.386719 72.769531 C 172.261719 72.492188 174.144531 72.257812 176.03125 72.074219 C 177.917969 71.886719 179.808594 71.746094 181.703125 71.652344 C 183.597656 71.5625 185.492188 71.515625 187.390625 71.515625 C 189.285156 71.515625 191.179688 71.5625 193.074219 71.652344 C 194.96875 71.746094 196.859375 71.886719 198.746094 72.074219 C 200.632812 72.257812 202.515625 72.492188 204.390625 72.769531 C 206.269531 73.046875 208.136719 73.371094 209.996094 73.742188 C 211.855469 74.109375 213.707031 74.527344 215.546875 74.988281 C 217.382812 75.449219 219.210938 75.953125 221.027344 76.503906 C 222.839844 77.054688 224.640625 77.648438 226.425781 78.289062 C 228.210938 78.925781 229.980469 79.609375 231.734375 80.335938 C 233.484375 81.0625 235.21875 81.828125 236.933594 82.640625 C 238.648438 83.449219 240.339844 84.304688 242.011719 85.195312 C 243.683594 86.089844 245.335938 87.027344 246.960938 88 C 248.585938 88.976562 250.191406 89.988281 251.765625 91.042969 C 253.34375 92.097656 254.894531 93.1875 256.417969 94.316406 C 257.9375 95.449219 259.433594 96.613281 260.898438 97.816406 C 262.367188 99.019531 263.800781 100.257812 265.207031 101.53125 C 266.613281 102.804688 267.984375 104.113281 269.324219 105.453125 C 270.667969 106.792969 271.972656 108.167969 273.246094 109.574219 C 274.519531 110.976562 275.757812 112.414062 276.960938 113.878906 C 278.164062 115.34375 279.332031 116.839844 280.460938 118.363281 C 281.589844 119.886719 282.683594 121.4375 283.734375 123.011719 C 284.789062 124.589844 285.804688 126.191406 286.777344 127.816406 C 287.753906 129.445312 288.6875 131.09375 289.582031 132.765625 C 290.476562 134.4375 291.328125 136.132812 292.140625 137.847656 C 292.949219 139.5625 293.71875 141.292969 294.445312 143.046875 C 295.167969 144.796875 295.851562 146.566406 296.492188 148.351562 C 297.128906 150.136719 297.722656 151.9375 298.273438 153.753906 C 298.824219 155.566406 299.332031 157.394531 299.792969 159.234375 C 300.253906 161.074219 300.667969 162.921875 301.039062 164.785156 C 301.40625 166.644531 301.730469 168.511719 302.011719 170.386719 C 302.289062 172.261719 302.519531 174.144531 302.707031 176.03125 C 302.890625 177.917969 303.03125 179.808594 303.125 181.703125 C 303.21875 183.597656 303.265625 185.492188 303.265625 187.390625 Z M 303.265625 187.390625 " fill-opacity="1" fill-rule="nonzero"/></g><g clip-path="url(#8ef24d0065)"><path fill="#ffffff" d="M 217.847656 188.410156 C 220.070312 189.558594 222.53125 190.160156 225.085938 190.160156 C 233.800781 190.160156 240.890625 183.078125 240.890625 174.375 C 240.890625 166.101562 234.484375 159.304688 226.371094 158.648438 C 224.527344 156.851562 220.503906 155.578125 213.710938 154.546875 C 206.082031 153.386719 195.972656 152.746094 185.238281 152.746094 C 184.453125 152.746094 183.675781 152.75 182.902344 152.757812 C 181.4375 152.773438 180.261719 153.96875 180.273438 155.433594 C 180.273438 155.460938 180.28125 155.488281 180.28125 155.519531 C 180.339844 156.933594 181.5 158.058594 182.925781 158.058594 L 182.949219 158.058594 C 183.707031 158.050781 184.46875 158.046875 185.238281 158.046875 C 204.125 158.046875 215.972656 159.921875 220.582031 161.4375 C 215.972656 162.949219 204.125 164.824219 185.238281 164.824219 C 166.402344 164.824219 154.570312 162.960938 149.933594 161.449219 C 152.507812 160.601562 157.6875 159.472656 167.007812 158.730469 C 168.433594 158.617188 169.496094 157.390625 169.4375 155.976562 C 169.433594 155.945312 169.441406 155.910156 169.4375 155.878906 C 169.324219 154.417969 168.046875 153.324219 166.585938 153.449219 C 160.136719 153.964844 154.675781 154.742188 150.792969 155.699219 C 147.183594 156.589844 143.511719 157.882812 142.964844 160.699219 C 142.894531 160.933594 142.84375 161.179688 142.84375 161.4375 C 142.84375 177.351562 151.6875 191.234375 164.71875 198.464844 L 145.496094 198.464844 C 144.035156 198.464844 142.84375 199.648438 142.84375 201.113281 C 142.84375 210.636719 164.8125 214.976562 185.21875 214.976562 C 205.628906 214.976562 227.59375 210.636719 227.59375 201.113281 C 227.59375 199.648438 226.40625 198.464844 224.941406 198.464844 L 205.71875 198.464844 C 210.363281 195.886719 214.476562 192.46875 217.847656 188.410156 Z M 227.492188 164.171875 C 232.125 165.265625 235.585938 169.417969 235.585938 174.375 C 235.585938 180.15625 230.875 184.863281 225.085938 184.863281 C 223.667969 184.863281 222.289062 184.582031 221.011719 184.046875 C 224.710938 178.222656 227.027344 171.445312 227.492188 164.171875 Z M 227.492188 164.171875 " fill-opacity="1" fill-rule="nonzero"/></g><path fill="#ffffff" d="M 175.210938 125.726562 C 177.003906 126.976562 180.738281 129.574219 180.738281 130.78125 C 180.738281 132.390625 178.15625 134.707031 176.082031 136.566406 C 173.628906 138.769531 171.09375 141.042969 170.261719 143.824219 C 169.164062 147.46875 170.28125 151.851562 172.246094 155.859375 C 173.511719 158.4375 175.125 160.859375 176.738281 162.824219 C 177.257812 163.464844 178.019531 163.796875 178.789062 163.796875 C 179.378906 163.796875 179.976562 163.601562 180.46875 163.195312 C 181.601562 162.269531 181.769531 160.601562 180.839844 159.46875 C 179.816406 158.21875 178.90625 156.914062 178.125 155.609375 C 175.765625 151.652344 174.632812 147.707031 175.34375 145.34375 C 175.746094 143.992188 177.808594 142.140625 179.625 140.507812 C 182.636719 137.808594 186.042969 134.75 186.042969 130.78125 C 186.042969 126.804688 181.898438 123.921875 178.242188 121.375 C 177.214844 120.664062 175.773438 119.660156 175.050781 118.988281 C 175.269531 118.097656 175.019531 117.117188 174.304688 116.4375 C 173.246094 115.429688 171.566406 115.46875 170.554688 116.53125 C 169.765625 117.359375 169.394531 118.414062 169.503906 119.507812 C 169.75 121.929688 172.160156 123.605469 175.210938 125.726562 Z M 175.210938 125.726562 " fill-opacity="1" fill-rule="nonzero"/><g clip-path="url(#ad3a03c153)"><path fill="#ffffff" d="M 190.539062 120.144531 C 192.355469 121.773438 194.417969 123.625 194.824219 124.980469 C 195.769531 128.117188 193.453125 134.058594 189.324219 139.101562 C 188.394531 140.234375 188.566406 141.902344 189.699219 142.832031 C 190.191406 143.234375 190.785156 143.429688 191.375 143.429688 C 192.144531 143.429688 192.90625 143.097656 193.429688 142.457031 C 197.542969 137.4375 201.707031 129.445312 199.90625 123.457031 C 199.070312 120.675781 196.535156 118.402344 194.082031 116.203125 C 192.003906 114.339844 189.421875 112.019531 189.421875 110.414062 C 189.421875 108.949219 188.234375 107.765625 186.769531 107.765625 C 185.304688 107.765625 184.117188 108.949219 184.117188 110.414062 C 184.117188 114.382812 187.527344 117.441406 190.539062 120.144531 Z M 190.539062 120.144531 " fill-opacity="1" fill-rule="nonzero"/></g><g clip-path="url(#ed92b3df4d)"><g clip-path="url(#8c637fcc6f)"><path fill="#ffffff" d="M 90.046875 134.808594 L 97.679688 134.808594 L 97.679688 142.441406 L 90.046875 142.441406 Z M 90.046875 134.808594 " fill-opacity="1" fill-rule="nonzero"/></g></g><g clip-path="url(#136f3e4504)"><g clip-path="url(#9e19aa7b54)"><path fill="#ffffff" d="M 277.320312 134.808594 L 284.953125 134.808594 L 284.953125 142.441406 L 277.320312 142.441406 Z M 277.320312 134.808594 " fill-opacity="1" fill-rule="nonzero"/></g></g><g fill="#ffffff" fill-opacity="1"><g transform="translate(102.989111, 132.717883)"><g><path d="M -7.171875 -6.25 L -5.09375 -9.390625 C -4.4375 -10.378906 -3.691406 -10.988281 -2.859375 -11.21875 C -2.035156 -11.445312 -1.203125 -11.28125 -0.359375 -10.71875 C 0.535156 -10.125 1.046875 -9.394531 1.171875 -8.53125 C 1.304688 -7.664062 1.046875 -6.738281 0.390625 -5.75 L -0.8125 -3.9375 L 1.5625 -2.359375 L 0.6875 -1.03125 Z M -5.109375 -6.796875 L -2 -4.71875 L -0.828125 -6.46875 C 0.00390625 -7.738281 -0.101562 -8.722656 -1.15625 -9.421875 C -2.175781 -10.109375 -3.101562 -9.816406 -3.9375 -8.546875 Z M -5.109375 -6.796875 "/></g></g></g><g fill="#ffffff" fill-opacity="1"><g transform="translate(108.904672, 123.918279)"><g><path d="M 4.640625 -5.546875 L 1.34375 -6.046875 C 1.28125 -5.972656 1.1875 -5.863281 1.0625 -5.71875 L -0.375 -4 L 1.8125 -2.171875 L 0.796875 -0.953125 L -6.4375 -7.015625 L -3.984375 -9.953125 C -3.210938 -10.867188 -2.394531 -11.398438 -1.53125 -11.546875 C -0.675781 -11.703125 0.140625 -11.453125 0.921875 -10.796875 C 1.503906 -10.316406 1.882812 -9.773438 2.0625 -9.171875 C 2.25 -8.578125 2.234375 -7.96875 2.015625 -7.34375 L 5.796875 -6.921875 Z M -1.46875 -4.921875 L -0.03125 -6.640625 C 0.945312 -7.804688 0.953125 -8.789062 -0.015625 -9.59375 C -0.953125 -10.382812 -1.910156 -10.195312 -2.890625 -9.03125 L -4.328125 -7.3125 Z M -1.46875 -4.921875 "/></g></g></g><g fill="#ffffff" fill-opacity="1"><g transform="translate(116.226371, 115.339288)"><g><path d="M 0.21875 -11.3125 L -3.5 -7.734375 L -1.734375 -5.90625 L 1.59375 -9.09375 L 2.578125 -8.046875 L -0.75 -4.859375 L 1.0625 -2.984375 L 4.890625 -6.671875 L 5.875 -5.640625 L 0.890625 -0.859375 L -5.640625 -7.671875 L -0.765625 -12.34375 Z M 0.21875 -11.3125 "/></g></g></g><g fill="#ffffff" fill-opacity="1"><g transform="translate(123.665879, 108.176262)"><g><path d="M 8.984375 -6.71875 L 7.8125 -5.828125 L 3.578125 -11.46875 L 4.8125 -4.8125 L 3.984375 -4.203125 L -2.03125 -7.28125 L 2.1875 -1.640625 L 0.984375 -0.734375 L -4.65625 -8.296875 L -3.140625 -9.4375 L 3.125 -6.28125 L 1.84375 -13.15625 L 3.34375 -14.28125 Z M 8.984375 -6.71875 "/></g></g></g><g fill="#ffffff" fill-opacity="1"><g transform="translate(135.085968, 100.006171)"><g><path d="M 2.421875 -1.453125 L 1.0625 -0.640625 L -3.796875 -8.734375 L -2.4375 -9.546875 Z M 2.421875 -1.453125 "/></g></g></g><g fill="#ffffff" fill-opacity="1"><g transform="translate(139.935475, 97.013135)"><g><path d="M 4.203125 -12.53125 L 6.625 -7.5625 C 7.15625 -6.457031 7.25 -5.425781 6.90625 -4.46875 C 6.5625 -3.507812 5.816406 -2.75 4.671875 -2.1875 C 3.523438 -1.632812 2.460938 -1.515625 1.484375 -1.828125 C 0.515625 -2.148438 -0.234375 -2.863281 -0.765625 -3.96875 L -3.1875 -8.9375 L -1.75 -9.640625 L 0.671875 -4.671875 C 1.015625 -3.960938 1.488281 -3.5 2.09375 -3.28125 C 2.695312 -3.070312 3.351562 -3.140625 4.0625 -3.484375 C 4.757812 -3.816406 5.207031 -4.28125 5.40625 -4.875 C 5.613281 -5.476562 5.546875 -6.140625 5.203125 -6.859375 L 2.78125 -11.828125 Z M 4.203125 -12.53125 "/></g></g></g><g fill="#ffffff" fill-opacity="1"><g transform="translate(150.516331, 91.900841)"><g><path d="M 10.640625 -3.546875 L 9.25 -3.078125 L 7 -9.765625 L 6.09375 -3.078125 L 5.109375 -2.75 L 0.359375 -7.546875 L 2.59375 -0.859375 L 1.171875 -0.390625 L -1.8125 -9.34375 L -0.015625 -9.9375 L 4.921875 -5 L 5.875 -11.90625 L 7.65625 -12.5 Z M 10.640625 -3.546875 "/></g></g></g><g fill="#ffffff" fill-opacity="1"><g transform="translate(163.937534, 87.732036)"><g/></g></g><g fill="#ffffff" fill-opacity="1"><g transform="translate(168.932495, 86.534474)"><g><path d="M 4.015625 -10.15625 C 4.679688 -10.257812 5.34375 -10.226562 6 -10.0625 C 6.664062 -9.894531 7.253906 -9.613281 7.765625 -9.21875 L 7.015625 -7.953125 C 6.617188 -8.265625 6.171875 -8.492188 5.671875 -8.640625 C 5.179688 -8.785156 4.703125 -8.828125 4.234375 -8.765625 C 3.296875 -8.628906 2.550781 -8.195312 2 -7.46875 C 1.457031 -6.738281 1.253906 -5.914062 1.390625 -5 C 1.523438 -4.070312 1.957031 -3.335938 2.6875 -2.796875 C 3.414062 -2.253906 4.25 -2.050781 5.1875 -2.1875 C 6.15625 -2.320312 6.972656 -2.8125 7.640625 -3.65625 L 8.703125 -2.75 C 8.304688 -2.207031 7.804688 -1.753906 7.203125 -1.390625 C 6.597656 -1.023438 5.96875 -0.796875 5.3125 -0.703125 C 3.957031 -0.503906 2.742188 -0.789062 1.671875 -1.5625 C 0.597656 -2.34375 -0.03125 -3.40625 -0.21875 -4.75 C -0.414062 -6.082031 -0.101562 -7.265625 0.71875 -8.296875 C 1.539062 -9.335938 2.640625 -9.957031 4.015625 -10.15625 Z M 4.015625 -10.15625 "/></g></g></g><g fill="#ffffff" fill-opacity="1"><g transform="translate(179.723941, 85.024072)"><g><path d="M 1.6875 -8.15625 C 2.632812 -9.09375 3.8125 -9.578125 5.21875 -9.609375 C 6.632812 -9.648438 7.832031 -9.226562 8.8125 -8.34375 C 9.800781 -7.457031 10.3125 -6.335938 10.34375 -4.984375 C 10.382812 -3.640625 9.929688 -2.492188 8.984375 -1.546875 C 8.046875 -0.597656 6.867188 -0.101562 5.453125 -0.0625 C 4.046875 -0.03125 2.847656 -0.460938 1.859375 -1.359375 C 0.878906 -2.265625 0.367188 -3.390625 0.328125 -4.734375 C 0.296875 -6.085938 0.75 -7.226562 1.6875 -8.15625 Z M 5.265625 -8.1875 C 4.335938 -8.15625 3.546875 -7.8125 2.890625 -7.15625 C 2.242188 -6.5 1.929688 -5.703125 1.953125 -4.765625 C 1.984375 -3.828125 2.335938 -3.039062 3.015625 -2.40625 C 3.703125 -1.769531 4.507812 -1.460938 5.4375 -1.484375 C 6.363281 -1.515625 7.144531 -1.863281 7.78125 -2.53125 C 8.425781 -3.195312 8.734375 -4 8.703125 -4.9375 C 8.679688 -5.875 8.332031 -6.65625 7.65625 -7.28125 C 6.988281 -7.90625 6.191406 -8.207031 5.265625 -8.1875 Z M 5.265625 -8.1875 "/></g></g></g><g fill="#ffffff" fill-opacity="1"><g transform="translate(192.171851, 84.886376)"><g><path d="M 8.21875 -7.34375 L 3.5 -7.75 L 3.265625 -5.03125 L 7.546875 -4.65625 L 7.421875 -3.25 L 3.140625 -3.625 L 2.8125 0.234375 L 1.234375 0.109375 L 2.046875 -9.296875 L 8.359375 -8.765625 Z M 8.21875 -7.34375 "/></g></g></g><g fill="#ffffff" fill-opacity="1"><g transform="translate(201.481505, 85.758896)"><g><path d="M 8.875 -6.53125 L 4.21875 -7.390625 L 3.734375 -4.703125 L 7.96875 -3.921875 L 7.703125 -2.53125 L 3.46875 -3.3125 L 2.78125 0.5 L 1.21875 0.21875 L 2.90625 -9.0625 L 9.140625 -7.921875 Z M 8.875 -6.53125 "/></g></g></g><g fill="#ffffff" fill-opacity="1"><g transform="translate(210.649536, 87.480985)"><g><path d="M 9.890625 -5.5 L 4.9375 -6.921875 L 4.234375 -4.46875 L 8.65625 -3.1875 L 8.25 -1.8125 L 3.828125 -3.09375 L 3.109375 -0.578125 L 8.21875 0.890625 L 7.828125 2.25 L 1.1875 0.34375 L 3.796875 -8.71875 L 10.28125 -6.859375 Z M 9.890625 -5.5 "/></g></g></g><g fill="#ffffff" fill-opacity="1"><g transform="translate(220.617309, 90.435588)"><g><path d="M 10.40625 -4.421875 L 5.640625 -6.359375 L 4.6875 -4 L 8.953125 -2.265625 L 8.40625 -0.9375 L 4.140625 -2.671875 L 3.15625 -0.25 L 8.078125 1.75 L 7.546875 3.0625 L 1.140625 0.46875 L 4.6875 -8.28125 L 10.9375 -5.75 Z M 10.40625 -4.421875 "/></g></g></g><g fill="#ffffff" fill-opacity="1"><g transform="translate(230.286639, 94.551165)"><g/></g></g><g fill="#ffffff" fill-opacity="1"><g transform="translate(234.901066, 96.801261)"><g><path d="M 5.96875 -7.421875 L 9.484375 -5.28125 C 10.316406 -4.769531 10.863281 -4.1875 11.125 -3.53125 C 11.394531 -2.875 11.335938 -2.234375 10.953125 -1.609375 C 10.671875 -1.148438 10.304688 -0.84375 9.859375 -0.6875 C 9.421875 -0.53125 8.945312 -0.523438 8.4375 -0.671875 C 8.914062 -0.253906 9.195312 0.222656 9.28125 0.765625 C 9.375 1.316406 9.253906 1.863281 8.921875 2.40625 C 8.503906 3.101562 7.910156 3.484375 7.140625 3.546875 C 6.378906 3.617188 5.546875 3.378906 4.640625 2.828125 L 1.046875 0.640625 Z M 6.59375 -5.375 L 5.296875 -3.25 L 7.375 -1.96875 C 7.800781 -1.707031 8.195312 -1.597656 8.5625 -1.640625 C 8.925781 -1.691406 9.207031 -1.882812 9.40625 -2.21875 C 9.613281 -2.5625 9.648438 -2.894531 9.515625 -3.21875 C 9.390625 -3.539062 9.109375 -3.832031 8.671875 -4.09375 Z M 4.578125 -2.046875 L 3.15625 0.25 L 5.234375 1.53125 C 5.765625 1.851562 6.238281 2.003906 6.65625 1.984375 C 7.070312 1.960938 7.394531 1.757812 7.625 1.375 C 7.84375 1.03125 7.863281 0.664062 7.6875 0.28125 C 7.519531 -0.101562 7.175781 -0.453125 6.65625 -0.765625 Z M 4.578125 -2.046875 "/></g></g></g><g fill="#ffffff" fill-opacity="1"><g transform="translate(244.285724, 102.645311)"><g><path d="M 11.21875 -1.46875 L 7.125 -4.625 L 5.578125 -2.609375 L 9.234375 0.21875 L 8.34375 1.359375 L 4.6875 -1.46875 L 3.109375 0.59375 L 7.328125 3.84375 L 6.453125 4.96875 L 0.984375 0.75 L 6.75 -6.71875 L 12.09375 -2.59375 Z M 11.21875 -1.46875 "/></g></g></g><g fill="#ffffff" fill-opacity="1"><g transform="translate(252.471026, 109.055237)"><g><path d="M 11.3125 -0.28125 L 7.578125 -3.84375 L 5.828125 -2 L 9.15625 1.1875 L 8.15625 2.21875 L 4.828125 -0.96875 L 3.03125 0.921875 L 6.875 4.59375 L 5.890625 5.625 L 0.890625 0.859375 L 7.40625 -5.96875 L 12.296875 -1.3125 Z M 11.3125 -0.28125 "/></g></g></g><g fill="#ffffff" fill-opacity="1"><g transform="translate(259.943179, 116.232482)"><g><path d="M 6.03125 7.234375 L 5.03125 6.03125 L 7.015625 -2.15625 L 1.8125 2.171875 L 0.796875 0.953125 L 8.046875 -5.09375 L 9.046875 -3.890625 L 7.078125 4.328125 L 12.28125 -0.015625 L 13.28125 1.1875 Z M 6.03125 7.234375 "/></g></g></g><g fill="#ffffff" fill-opacity="1"><g transform="translate(267.635134, 125.700645)"><g><path d="M 10.328125 -1.59375 C 10.992188 -0.570312 11.328125 0.519531 11.328125 1.6875 L 9.8125 1.90625 C 9.757812 0.78125 9.492188 -0.148438 9.015625 -0.890625 C 8.742188 -1.285156 8.460938 -1.546875 8.171875 -1.671875 C 7.890625 -1.804688 7.613281 -1.785156 7.34375 -1.609375 C 7.082031 -1.429688 6.925781 -1.175781 6.875 -0.84375 C 6.832031 -0.519531 6.867188 -0.171875 6.984375 0.203125 C 7.109375 0.578125 7.222656 0.988281 7.328125 1.4375 C 7.441406 1.882812 7.53125 2.316406 7.59375 2.734375 C 7.664062 3.148438 7.609375 3.5625 7.421875 3.96875 C 7.242188 4.375 6.9375 4.722656 6.5 5.015625 C 5.800781 5.472656 5.066406 5.5625 4.296875 5.28125 C 3.523438 5 2.847656 4.421875 2.265625 3.546875 C 1.867188 2.941406 1.597656 2.285156 1.453125 1.578125 C 1.304688 0.867188 1.285156 0.171875 1.390625 -0.515625 L 2.90625 -0.6875 C 2.8125 -0.0390625 2.820312 0.582031 2.9375 1.1875 C 3.050781 1.789062 3.25 2.304688 3.53125 2.734375 C 3.832031 3.203125 4.148438 3.507812 4.484375 3.65625 C 4.828125 3.8125 5.15625 3.789062 5.46875 3.59375 C 5.738281 3.414062 5.894531 3.160156 5.9375 2.828125 C 5.988281 2.503906 5.953125 2.15625 5.828125 1.78125 C 5.703125 1.40625 5.578125 0.988281 5.453125 0.53125 C 5.335938 0.0820312 5.242188 -0.335938 5.171875 -0.734375 C 5.097656 -1.140625 5.148438 -1.550781 5.328125 -1.96875 C 5.503906 -2.394531 5.804688 -2.75 6.234375 -3.03125 C 6.910156 -3.46875 7.617188 -3.550781 8.359375 -3.28125 C 9.097656 -3.019531 9.753906 -2.457031 10.328125 -1.59375 Z M 10.328125 -1.59375 "/></g></g></g><g fill="#191817" fill-opacity="1"><g transform="translate(136.608459, 262.831843)"><g><path d="M 18.9375 -27.0625 L 25.4375 -27.0625 L 25.4375 0 L 7.5 -13.1875 L 7.5 0 L 1 0 L 1 -27.0625 L 18.9375 -13.234375 Z M 18.9375 -27.0625 "/></g></g></g><g fill="#191817" fill-opacity="1"><g transform="translate(163.04035, 262.831843)"><g><path d="M 7.75 -10.609375 L 7.75 -5.828125 L 20.140625 -5.828125 L 20.140625 0 L 1.25 0 L 1.25 -27.0625 L 20.140625 -27.0625 L 20.140625 -21.234375 L 7.75 -21.234375 L 7.75 -16.4375 L 18.265625 -16.4375 L 18.265625 -10.609375 Z M 7.75 -10.609375 "/></g></g></g><g fill="#191817" fill-opacity="1"><g transform="translate(184.435616, 262.831843)"><g><path d="M 14.5625 -26.9375 C 18.425781 -26.9375 21.71875 -25.578125 24.4375 -22.859375 C 27.15625 -20.128906 28.515625 -16.835938 28.515625 -12.984375 C 28.515625 -9.128906 27.15625 -5.84375 24.4375 -3.125 C 21.71875 -0.40625 18.425781 0.953125 14.5625 0.953125 C 10.707031 0.953125 7.421875 -0.40625 4.703125 -3.125 C 1.984375 -5.84375 0.625 -9.128906 0.625 -12.984375 C 0.625 -16.835938 1.984375 -20.128906 4.703125 -22.859375 C 7.421875 -25.578125 10.707031 -26.9375 14.5625 -26.9375 Z M 20.3125 -7.25 C 21.894531 -8.820312 22.6875 -10.734375 22.6875 -12.984375 C 22.6875 -15.234375 21.894531 -17.148438 20.3125 -18.734375 C 18.726562 -20.316406 16.8125 -21.109375 14.5625 -21.109375 C 12.320312 -21.109375 10.410156 -20.316406 8.828125 -18.734375 C 7.242188 -17.148438 6.453125 -15.234375 6.453125 -12.984375 C 6.453125 -10.734375 7.242188 -8.820312 8.828125 -7.25 C 10.460938 -5.664062 12.375 -4.875 14.5625 -4.875 C 16.757812 -4.875 18.675781 -5.664062 20.3125 -7.25 Z M 20.3125 -7.25 "/></g></g></g><g fill="#191817" fill-opacity="1"><g transform="translate(213.573129, 262.831843)"><g><path d="M 12.28125 0.046875 C 10.445312 0.046875 8.835938 -0.21875 7.453125 -0.75 C 6.335938 -1.195312 5.195312 -1.929688 4.03125 -2.953125 C 2.707031 -4.171875 1.863281 -5.6875 1.5 -7.5 C 1.363281 -8.070312 1.296875 -8.648438 1.296875 -9.234375 C 1.265625 -9.429688 1.265625 -9.628906 1.296875 -9.828125 L 1.296875 -10.109375 L 7 -10.03125 L 7 -10.078125 C 7 -9.046875 7.21875 -8.195312 7.65625 -7.53125 C 8.488281 -6.28125 10.03125 -5.65625 12.28125 -5.65625 C 15.882812 -5.65625 17.6875 -6.503906 17.6875 -8.203125 C 17.6875 -9.835938 15.828125 -10.863281 12.109375 -11.28125 C 9.972656 -11.53125 8.144531 -11.972656 6.625 -12.609375 C 5.207031 -13.191406 4.050781 -13.96875 3.15625 -14.9375 C 1.914062 -16.332031 1.296875 -17.941406 1.296875 -19.765625 C 1.296875 -20.910156 1.503906 -21.984375 1.921875 -22.984375 C 2.222656 -23.722656 2.632812 -24.398438 3.15625 -25.015625 C 5.101562 -27.210938 8.1875 -28.3125 12.40625 -28.3125 C 14.925781 -28.3125 17.0625 -27.8125 18.8125 -26.8125 C 20.144531 -26.0625 21.226562 -25.0625 22.0625 -23.8125 C 22.675781 -22.863281 23.109375 -21.78125 23.359375 -20.5625 C 23.429688 -20.144531 23.484375 -19.726562 23.515625 -19.3125 C 23.546875 -19.175781 23.5625 -19.035156 23.5625 -18.890625 L 23.5625 -18.640625 L 17.859375 -18.640625 L 17.859375 -18.609375 C 17.890625 -19.441406 17.679688 -20.148438 17.234375 -20.734375 C 16.347656 -21.984375 14.738281 -22.609375 12.40625 -22.609375 C 10.988281 -22.609375 9.820312 -22.425781 8.90625 -22.0625 C 7.769531 -21.613281 7.203125 -20.972656 7.203125 -20.140625 C 7.203125 -18.421875 9.046875 -17.351562 12.734375 -16.9375 C 16.898438 -16.46875 19.898438 -15.175781 21.734375 -13.0625 C 22.953125 -11.625 23.5625 -10.003906 23.5625 -8.203125 L 23.5625 -7.828125 C 23.5625 -7.660156 23.546875 -7.492188 23.515625 -7.328125 C 23.484375 -6.878906 23.429688 -6.460938 23.359375 -6.078125 C 23.078125 -4.960938 22.546875 -3.976562 21.765625 -3.125 C 20.847656 -2.09375 19.613281 -1.300781 18.0625 -0.75 C 16.507812 -0.21875 14.582031 0.046875 12.28125 0.046875 Z M 12.28125 0.046875 "/></g></g></g><g fill="#191817" fill-opacity="1"><g transform="translate(137.487365, 291.288994)"><g><path d="M 17.640625 -2.484375 C 15.722656 -0.890625 13.53125 -0.09375 11.0625 -0.09375 C 8.257812 -0.09375 5.867188 -1.082031 3.890625 -3.0625 C 1.898438 -5.050781 0.90625 -7.441406 0.90625 -10.234375 C 0.90625 -13.046875 1.898438 -15.445312 3.890625 -17.4375 C 5.867188 -19.414062 8.257812 -20.40625 11.0625 -20.40625 C 13.550781 -20.40625 15.742188 -19.597656 17.640625 -17.984375 L 14.609375 -14.96875 C 13.578125 -15.757812 12.394531 -16.15625 11.0625 -16.15625 C 9.4375 -16.15625 8.046875 -15.578125 6.890625 -14.421875 C 5.734375 -13.273438 5.15625 -11.878906 5.15625 -10.234375 C 5.15625 -8.617188 5.734375 -7.234375 6.890625 -6.078125 C 8.046875 -4.921875 9.4375 -4.34375 11.0625 -4.34375 C 12.394531 -4.34375 13.578125 -4.738281 14.609375 -5.53125 Z M 17.640625 -2.484375 "/></g></g></g><g fill="#191817" fill-opacity="1"><g transform="translate(156.957701, 291.288994)"><g><path d="M 10.625 -19.65625 C 13.445312 -19.65625 15.847656 -18.660156 17.828125 -16.671875 C 19.816406 -14.691406 20.8125 -12.296875 20.8125 -9.484375 C 20.8125 -6.660156 19.816406 -4.257812 17.828125 -2.28125 C 15.847656 -0.289062 13.445312 0.703125 10.625 0.703125 C 7.8125 0.703125 5.414062 -0.289062 3.4375 -2.28125 C 1.445312 -4.257812 0.453125 -6.660156 0.453125 -9.484375 C 0.453125 -12.296875 1.445312 -14.691406 3.4375 -16.671875 C 5.414062 -18.660156 7.8125 -19.65625 10.625 -19.65625 Z M 14.828125 -5.28125 C 15.972656 -6.4375 16.546875 -7.835938 16.546875 -9.484375 C 16.546875 -11.117188 15.972656 -12.515625 14.828125 -13.671875 C 13.671875 -14.828125 12.269531 -15.40625 10.625 -15.40625 C 8.988281 -15.40625 7.59375 -14.828125 6.4375 -13.671875 C 5.28125 -12.515625 4.703125 -11.117188 4.703125 -9.484375 C 4.703125 -7.835938 5.28125 -6.4375 6.4375 -5.28125 C 7.632812 -4.125 9.03125 -3.546875 10.625 -3.546875 C 12.226562 -3.546875 13.628906 -4.125 14.828125 -5.28125 Z M 14.828125 -5.28125 "/></g></g></g><g fill="#191817" fill-opacity="1"><g transform="translate(178.220158, 291.288994)"><g><path d="M 13.125 -15.484375 L 5.65625 -15.484375 L 5.65625 -12 L 11.203125 -12 L 11.203125 -7.75 L 5.65625 -7.75 L 5.65625 0 L 0.90625 0 L 0.90625 -19.75 L 13.125 -19.75 Z M 13.125 -15.484375 "/></g></g></g><g fill="#191817" fill-opacity="1"><g transform="translate(192.253383, 291.288994)"><g><path d="M 13.125 -15.484375 L 5.65625 -15.484375 L 5.65625 -12 L 11.203125 -12 L 11.203125 -7.75 L 5.65625 -7.75 L 5.65625 0 L 0.90625 0 L 0.90625 -19.75 L 13.125 -19.75 Z M 13.125 -15.484375 "/></g></g></g><g fill="#191817" fill-opacity="1"><g transform="translate(206.286608, 291.288994)"><g><path d="M 5.65625 -7.75 L 5.65625 -4.25 L 14.703125 -4.25 L 14.703125 0 L 0.90625 0 L 0.90625 -19.75 L 14.703125 -19.75 L 14.703125 -15.484375 L 5.65625 -15.484375 L 5.65625 -12 L 13.328125 -12 L 13.328125 -7.75 Z M 5.65625 -7.75 "/></g></g></g><g fill="#191817" fill-opacity="1"><g transform="translate(221.899324, 291.288994)"><g><path d="M 5.65625 -7.75 L 5.65625 -4.25 L 14.703125 -4.25 L 14.703125 0 L 0.90625 0 L 0.90625 -19.75 L 14.703125 -19.75 L 14.703125 -15.484375 L 5.65625 -15.484375 L 5.65625 -12 L 13.328125 -12 L 13.328125 -7.75 Z M 5.65625 -7.75 "/></g></g></g><g fill="#ffffff" fill-opacity="1"><g transform="translate(84.066997, 192.565816)"><g><path d="M 7.640625 -6.9375 L 3.0625 -6.9375 L 3.0625 -5.203125 L 7.203125 -5.203125 L 7.203125 -3.484375 L 3.0625 -3.484375 L 3.0625 -1.734375 L 7.78125 -1.734375 L 7.78125 0 L 0.859375 0 L 0.859375 -8.65625 L 7.640625 -8.65625 Z M 7.640625 -6.9375 "/></g></g></g><g fill="#ffffff" fill-opacity="1"><g transform="translate(93.020663, 192.565816)"><g><path d="M 4.1875 -8.765625 C 5.488281 -8.765625 6.628906 -8.441406 7.609375 -7.796875 L 6.78125 -6.078125 C 6.320312 -6.335938 5.832031 -6.550781 5.3125 -6.71875 C 4.800781 -6.894531 4.367188 -6.984375 4.015625 -6.984375 C 3.378906 -6.984375 3.0625 -6.769531 3.0625 -6.34375 C 3.0625 -6.070312 3.21875 -5.851562 3.53125 -5.6875 C 3.84375 -5.519531 4.222656 -5.378906 4.671875 -5.265625 C 5.117188 -5.148438 5.566406 -5.003906 6.015625 -4.828125 C 6.460938 -4.660156 6.84375 -4.382812 7.15625 -4 C 7.476562 -3.625 7.640625 -3.148438 7.640625 -2.578125 C 7.640625 -1.742188 7.3125 -1.09375 6.65625 -0.625 C 6.007812 -0.15625 5.179688 0.078125 4.171875 0.078125 C 3.453125 0.078125 2.738281 -0.046875 2.03125 -0.296875 C 1.332031 -0.546875 0.722656 -0.882812 0.203125 -1.3125 L 1.0625 -3 C 1.5 -2.625 2.015625 -2.3125 2.609375 -2.0625 C 3.203125 -1.820312 3.726562 -1.703125 4.1875 -1.703125 C 4.550781 -1.703125 4.832031 -1.765625 5.03125 -1.890625 C 5.226562 -2.023438 5.328125 -2.21875 5.328125 -2.46875 C 5.328125 -2.707031 5.210938 -2.90625 4.984375 -3.0625 C 4.753906 -3.21875 4.46875 -3.335938 4.125 -3.421875 C 3.789062 -3.503906 3.425781 -3.609375 3.03125 -3.734375 C 2.632812 -3.867188 2.265625 -4.015625 1.921875 -4.171875 C 1.585938 -4.328125 1.304688 -4.578125 1.078125 -4.921875 C 0.859375 -5.265625 0.75 -5.675781 0.75 -6.15625 C 0.75 -6.945312 1.0625 -7.578125 1.6875 -8.046875 C 2.320312 -8.523438 3.15625 -8.765625 4.1875 -8.765625 Z M 4.1875 -8.765625 "/></g></g></g><g fill="#ffffff" fill-opacity="1"><g transform="translate(101.603332, 192.565816)"><g><path d="M 7.484375 -6.890625 L 4.875 -6.890625 L 4.875 0 L 2.671875 0 L 2.671875 -6.890625 L 0.09375 -6.890625 L 0.09375 -8.671875 L 7.484375 -8.671875 Z M 7.484375 -6.890625 "/></g></g></g><g fill="#ffffff" fill-opacity="1"><g transform="translate(109.777912, 192.565816)"><g><path d="M 0.859375 -8.65625 L 4.59375 -8.65625 C 5.957031 -8.65625 7.0625 -8.253906 7.90625 -7.453125 C 8.757812 -6.660156 9.1875 -5.617188 9.1875 -4.328125 C 9.1875 -3.046875 8.753906 -2.003906 7.890625 -1.203125 C 7.023438 -0.398438 5.894531 0 4.5 0 L 0.859375 0 Z M 3.0625 -6.90625 L 3.0625 -1.75 L 4.640625 -1.75 C 5.316406 -1.75 5.867188 -1.988281 6.296875 -2.46875 C 6.734375 -2.945312 6.953125 -3.5625 6.953125 -4.3125 C 6.953125 -5.070312 6.722656 -5.691406 6.265625 -6.171875 C 5.816406 -6.660156 5.242188 -6.90625 4.546875 -6.90625 Z M 3.0625 -6.90625 "/></g></g></g><g fill="#ffffff" fill-opacity="1"><g transform="translate(256.563781, 192.565816)"><g><path d="M 3.78125 -8.765625 C 4.65625 -8.765625 5.367188 -8.554688 5.921875 -8.140625 C 6.472656 -7.722656 6.75 -7.175781 6.75 -6.5 C 6.75 -5.6875 6.203125 -4.722656 5.109375 -3.609375 L 3.359375 -1.75 L 7 -1.75 L 7 0 L 0.515625 0 L 0.515625 -1.421875 L 3.609375 -4.703125 C 4.160156 -5.273438 4.4375 -5.769531 4.4375 -6.1875 C 4.4375 -6.4375 4.347656 -6.628906 4.171875 -6.765625 C 4.003906 -6.910156 3.769531 -6.984375 3.46875 -6.984375 C 2.75 -6.984375 1.957031 -6.613281 1.09375 -5.875 L 0.265625 -7.46875 C 1.421875 -8.332031 2.59375 -8.765625 3.78125 -8.765625 Z M 3.78125 -8.765625 "/></g></g></g><g fill="#ffffff" fill-opacity="1"><g transform="translate(264.602328, 192.565816)"><g><path d="M 4.359375 -8.734375 C 5.585938 -8.734375 6.53125 -8.351562 7.1875 -7.59375 C 7.851562 -6.832031 8.1875 -5.75 8.1875 -4.34375 C 8.1875 -2.925781 7.851562 -1.835938 7.1875 -1.078125 C 6.53125 -0.316406 5.585938 0.0625 4.359375 0.0625 C 3.117188 0.0625 2.164062 -0.316406 1.5 -1.078125 C 0.832031 -1.835938 0.5 -2.925781 0.5 -4.34375 C 0.5 -5.75 0.832031 -6.832031 1.5 -7.59375 C 2.164062 -8.351562 3.117188 -8.734375 4.359375 -8.734375 Z M 4.359375 -7.125 C 3.796875 -7.125 3.390625 -6.90625 3.140625 -6.46875 C 2.890625 -6.039062 2.765625 -5.332031 2.765625 -4.34375 C 2.765625 -3.351562 2.890625 -2.640625 3.140625 -2.203125 C 3.390625 -1.765625 3.796875 -1.546875 4.359375 -1.546875 C 4.898438 -1.546875 5.296875 -1.765625 5.546875 -2.203125 C 5.796875 -2.648438 5.921875 -3.363281 5.921875 -4.34375 C 5.921875 -5.320312 5.796875 -6.03125 5.546875 -6.46875 C 5.296875 -6.90625 4.898438 -7.125 4.359375 -7.125 Z M 4.359375 -7.125 "/></g></g></g><g fill="#ffffff" fill-opacity="1"><g transform="translate(273.914605, 192.565816)"><g><path d="M 3.890625 0 L 1.6875 0 L 1.6875 -6.90625 L 0.09375 -6.90625 L 0.09375 -8.671875 L 3.890625 -8.671875 Z M 3.890625 0 "/></g></g></g><g fill="#ffffff" fill-opacity="1"><g transform="translate(279.628281, 192.565816)"><g><path d="M 3.953125 -8.765625 C 4.910156 -8.765625 5.664062 -8.550781 6.21875 -8.125 C 6.78125 -7.707031 7.0625 -7.144531 7.0625 -6.4375 C 7.0625 -6.050781 6.960938 -5.703125 6.765625 -5.390625 C 6.578125 -5.078125 6.316406 -4.828125 5.984375 -4.640625 C 6.453125 -4.441406 6.828125 -4.144531 7.109375 -3.75 C 7.390625 -3.363281 7.53125 -2.929688 7.53125 -2.453125 C 7.53125 -1.671875 7.207031 -1.050781 6.5625 -0.59375 C 5.914062 -0.132812 5.050781 0.09375 3.96875 0.09375 C 2.882812 0.09375 2.019531 -0.128906 1.375 -0.578125 C 0.738281 -1.035156 0.421875 -1.644531 0.421875 -2.40625 C 0.421875 -2.90625 0.566406 -3.351562 0.859375 -3.75 C 1.160156 -4.144531 1.5625 -4.441406 2.0625 -4.640625 C 1.695312 -4.847656 1.40625 -5.113281 1.1875 -5.4375 C 0.96875 -5.769531 0.859375 -6.125 0.859375 -6.5 C 0.859375 -7.1875 1.140625 -7.734375 1.703125 -8.140625 C 2.265625 -8.554688 3.015625 -8.765625 3.953125 -8.765625 Z M 4.890625 -7.046875 C 4.679688 -7.222656 4.375 -7.3125 3.96875 -7.3125 C 3.5625 -7.3125 3.25 -7.222656 3.03125 -7.046875 C 2.820312 -6.878906 2.71875 -6.632812 2.71875 -6.3125 C 2.71875 -6 2.820312 -5.757812 3.03125 -5.59375 C 3.25 -5.425781 3.5625 -5.34375 3.96875 -5.34375 C 4.375 -5.34375 4.679688 -5.425781 4.890625 -5.59375 C 5.109375 -5.757812 5.21875 -6 5.21875 -6.3125 C 5.21875 -6.632812 5.109375 -6.878906 4.890625 -7.046875 Z M 5.0625 -3.46875 C 4.8125 -3.664062 4.445312 -3.765625 3.96875 -3.765625 C 3.488281 -3.765625 3.125 -3.664062 2.875 -3.46875 C 2.625 -3.28125 2.5 -3.003906 2.5 -2.640625 C 2.5 -2.273438 2.625 -1.992188 2.875 -1.796875 C 3.125 -1.597656 3.488281 -1.5 3.96875 -1.5 C 4.445312 -1.5 4.8125 -1.59375 5.0625 -1.78125 C 5.320312 -1.976562 5.453125 -2.265625 5.453125 -2.640625 C 5.453125 -3.003906 5.320312 -3.28125 5.0625 -3.46875 Z M 5.0625 -3.46875 "/></g></g></g><path stroke-linecap="round" transform="matrix(0.756022, 0, 0, 0.75, 254.092781, 196.801041)" fill="none" stroke-linejoin="miter" d="M 0.998483 0.999654 L 49.597832 0.999654 " stroke="#ffffff" stroke-width="2" stroke-opacity="1" stroke-miterlimit="4"/><path stroke-linecap="round" transform="matrix(0.756022, 0, 0, 0.75, 254.092781, 177.86574)" fill="none" stroke-linejoin="miter" d="M 0.998483 1.00193 L 49.597832 1.00193 " stroke="#ffffff" stroke-width="2" stroke-opacity="1" stroke-miterlimit="4"/><path stroke-linecap="round" transform="matrix(0.756022, 0, 0, 0.75, 82.696617, 196.801041)" fill="none" stroke-linejoin="miter" d="M 1.000643 0.999654 L 49.599992 0.999654 " stroke="#ffffff" stroke-width="2" stroke-opacity="1" stroke-miterlimit="4"/><path stroke-linecap="round" transform="matrix(0.756022, 0, 0, 0.75, 82.696617, 177.86574)" fill="none" stroke-linejoin="miter" d="M 1.000643 1.00193 L 49.599992 1.00193 " stroke="#ffffff" stroke-width="2" stroke-opacity="1" stroke-miterlimit="4"/><path stroke-linecap="round" transform="matrix(0.766884, 0, 0, 0.75, 97.555707, 245.441381)" fill="none" stroke-linejoin="miter" d="M 4.002289 4.000033 L 17.515773 4.000033 " stroke="#191817" stroke-width="8" stroke-opacity="1" stroke-miterlimit="4"/><path stroke-linecap="round" transform="matrix(0.766884, 0, 0, 0.75, 261.305699, 245.441381)" fill="none" stroke-linejoin="miter" d="M 4.002299 4.000033 L 17.515783 4.000033 " stroke="#191817" stroke-width="8" stroke-opacity="1" stroke-miterlimit="4"/></svg>